<svg width="448" height="214" xmlns="http://www.w3.org/2000/svg" xmlns:xlink="http://www.w3.org/1999/xlink"><defs><path id="a" d="M.06.093h447.874v162.176H.06z"/><path id="c" d="M.06.093h447.874v162.176H.06z"/></defs><g fill="none" fill-rule="evenodd"><path d="M297.726 201.713c3.326 0 5.739-2.62 5.739-5.975 0-3.326-2.413-5.945-5.739-5.945h-2.825v11.92h2.825zm-7.417-15.687c0-.295.236-.56.53-.56h7.181c5.681 0 10.331 4.621 10.331 10.272 0 5.71-4.65 10.331-10.331 10.331h-7.181c-.294 0-.53-.266-.53-.559v-19.484zM311.044 186.026c0-.295.235-.56.559-.56h12.184c.324 0 .559.265.559.56v3.208a.559.559 0 0 1-.559.559h-8.152v3.649h6.71a.58.58 0 0 1 .559.56v3.208a.559.559 0 0 1-.559.559h-6.71v3.973h8.152c.324 0 .559.265.559.559v3.209a.56.56 0 0 1-.559.559h-12.184a.56.56 0 0 1-.559-.559v-19.484M327.718 203.272l1.383-2.442c.236-.383.795-.324 1.001-.177.118.059 2.236 1.619 4.179 1.619 1.178 0 2.031-.736 2.031-1.766 0-1.236-1.031-2.178-3.031-2.972-2.532-1.001-5.71-2.973-5.71-6.505 0-2.913 2.266-5.856 6.799-5.856 3.06 0 5.415 1.559 6.298 2.207.353.206.294.736.176.942l-1.501 2.266c-.206.323-.735.588-1 .382-.265-.147-2.414-1.765-4.209-1.765-1.06 0-1.854.706-1.854 1.5 0 1.089.883 1.913 3.207 2.855 2.296.912 5.946 2.708 5.946 6.711 0 3.031-2.619 6.092-6.946 6.092-3.826 0-5.945-1.59-6.622-2.267-.294-.294-.382-.412-.147-.824M345.159 186.026a.58.58 0 0 1 .559-.56h3.532a.58.58 0 0 1 .559.56v19.484a.58.58 0 0 1-.559.559h-3.532a.58.58 0 0 1-.559-.559v-19.484M363.654 185.202c2.473 0 5.18 1.03 7.181 2.766.265.207.295.56.059.795l-2.325 2.472a.623.623 0 0 1-.794.03c-1.119-1.03-2.414-1.413-3.856-1.413-3.208 0-5.798 2.708-5.798 5.945 0 3.208 2.619 5.857 5.827 5.857.854 0 1.737-.118 2.62-.471v-1.707h-1.855c-.323 0-.559-.235-.559-.53v-2.913c0-.324.236-.559.559-.559h5.916c.295 0 .53.264.53.559l.029 7.916a.73.73 0 0 1-.235.472s-2.776 1.913-7.043 1.913c-5.857 0-10.822-4.651-10.822-10.537a10.545 10.545 0 0 1 10.566-10.595M374.799 185.702c0-.294.265-.529.559-.529h.736l11.743 11.301h.029v-10.448c0-.295.235-.56.559-.56h3.532c.295 0 .559.265.559.56v19.807c0 .295-.264.53-.559.53h-.471c-.088 0-.323-.088-.383-.148l-11.625-11.684h-.029v10.979a.56.56 0 0 1-.56.559h-3.502a.58.58 0 0 1-.559-.559l-.029-19.808" fill="#FFF" fill-rule="nonzero"/><mask id="b" fill="#fff"><use xlink:href="#a"/></mask><path d="M429.815 31.231h-13.344c-.878 0-1.59-.663-1.59-1.481V17.189c0-.817.712-1.48 1.59-1.48h13.344c.878 0 1.59.663 1.59 1.48V29.75c0 .818-.712 1.481-1.59 1.481zM398.349 1.573v56.561c0 1.304 1.68 1.971 2.691 1.068l13.379-11.943a1.653 1.653 0 0 1 1.101-.412h30.824c.878 0 1.59-.663 1.59-1.481V1.573c0-.817-.712-1.48-1.59-1.48h-46.405c-.878 0-1.59.663-1.59 1.48z" fill="#FFF" fill-rule="nonzero" mask="url(#b)"/><mask id="d" fill="#fff"><use xlink:href="#c"/></mask><path d="M9.298 107.737h-6.08c-1.787 0-3.218-1.609-3.218-3.397V92.362c0-1.967 1.431-3.398 3.218-3.398h6.08V69.118c0-1.788 1.609-3.397 3.396-3.397l14.661-.178c1.788 0 3.218 1.609 3.218 3.396v20.025h15.734c1.967 0 3.398 1.431 3.398 3.398v11.978c0 1.788-1.431 3.397-3.398 3.397H30.573v28.607c0 5.006 2.683 5.721 5.543 5.721 3.04 0 6.794-1.251 8.762-1.966 1.966-.715 3.396.179 3.933 1.966l3.575 11.264c.715 1.789-.178 3.576-1.966 4.291-.894.537-12.515 4.649-21.277 4.649-13.766 0-19.845-8.582-19.845-23.064v-31.468" fill="#FFF" fill-rule="nonzero" mask="url(#d)"/><path d="M59.718 92.362c0-1.967 1.609-3.398 3.396-3.398h6.795c1.609 0 2.681.894 3.218 2.325l2.503 6.973c2.503-3.576 9.118-11.086 20.203-11.086 8.404 0 15.913 2.682 13.768 7.152l-6.616 11.622c-.894 1.609-2.682 2.324-4.112 1.609-.537-.179-3.218-1.073-5.185-1.073-7.152 0-11.442 4.827-12.694 7.331v43.267c0 2.503-1.609 3.397-4.112 3.397H63.114c-1.787 0-3.396-1.609-3.396-3.397V92.362M158.863 117.392c-1.074-3.754-5.364-10.906-14.483-10.906-9.833 0-16.627 8.582-16.627 18.595 0 10.012 6.614 17.879 16.09 17.879 9.477 0 13.768-7.331 15.02-11.622v-13.946zm21.275 39.692c0 1.788-1.609 3.397-3.396 3.397h-6.973c-1.609 0-2.861-1.43-3.398-3.397l-1.787-5.542s-8.404 10.727-23.422 10.727c-19.488 0-34.328-16.985-34.328-37.546s14.84-37.547 34.506-37.547c11.622 0 20.383 6.258 23.065 9.834l2.324-5.9c.537-1.43 1.788-2.146 3.04-2.146h6.973c1.787 0 3.396 1.431 3.396 3.398v64.722zM365.205 87.301c11.085 0 19.667 4.47 26.461 12.694 1.252 1.61.894 3.755-.893 5.006l-8.225 7.867c-1.609 1.431-3.218.537-4.47-.536-2.86-3.218-7.33-5.721-12.336-5.721-9.656 0-17.522 8.224-17.522 18.236 0 10.191 7.688 18.237 17.342 18.237 7.688 0 11.086-3.755 14.304-6.794 1.251-1.252 3.04-1.609 4.47-.536l7.688 6.615c1.788 1.431 2.503 3.219 1.251 5.006-6.079 9.476-15.555 15.019-28.248 15.019-20.204 0-37.905-16.092-37.905-37.547 0-21.097 18.058-37.546 38.083-37.546M252.764 88.95l2.858-18.757c.357-2.859.893-6.074 1.428-8.575-1.607-2.68-5.894-5.895-12.147-5.895-8.218 0-14.828 6.431-16.435 17.864l-2.143 15.363h26.439zm-51.807 18.758h-6.074c-1.786 0-2.68-1.608-2.501-3.395l1.608-11.969c.357-1.965 1.786-3.394 3.573-3.394h6.073l2.323-15.899c2.858-20.365 17.149-37.693 39.301-37.693 13.756 0 21.973 8.217 21.973 8.217 6.61-6.61 14.828-10.004 25.904-10.004 10.361 0 19.829 5.359 23.759 8.217 1.251.894 1.429 3.037.358 4.645l-6.789 10.719c-1.429 2.501-2.68 2.858-4.645 1.608-2.501-1.608-7.681-4.288-13.755-4.288-5.538 0-12.326 4.466-13.934 15.542l-2.68 18.936h43.231c1.787 0 2.858 1.429 2.68 3.394l-9.111 64.669c-.357 1.786-1.786 3.394-3.572 3.394h-15.721c-1.786 0-2.859-1.608-2.501-3.394l6.967-49.305h-24.652L258.48 210.606c-.357 1.786-1.965 3.394-3.573 3.394h-16.614c-1.608 0-2.858-1.608-2.501-3.394l14.47-102.898h-26.618l-14.469 102.898c-.179 1.786-1.787 3.394-3.395 3.394h-16.613c-1.609 0-2.858-1.608-2.501-3.394l14.291-102.898z" fill="#FFF" fill-rule="nonzero"/></g></svg>