<?xml version="1.0" encoding="UTF-8"?>
<svg width="55px" height="36px" viewBox="0 0 55 36" version="1.1" xmlns="http://www.w3.org/2000/svg" xmlns:xlink="http://www.w3.org/1999/xlink">
    <!-- Generator: Sketch 55.2 (78181) - https://sketchapp.com -->
    <title>Combined Shape</title>
    <desc>Created with Sketch.</desc>
    <g id="Page-1" stroke="none" stroke-width="1" fill="none" fill-rule="evenodd">
        <path d="M0.4,0.5 L54.7,0.5 L54.7,35.19 L0.4,35.19 L0.4,0.5 Z M52.6,1.5 L1.4,1.5 L1.4,33.59 L52.6,1.5 Z M2.36,34.19 L53.7,34.19 L53.7,2.05 L2.36,34.19 Z M6.91,6.49 L4.14,6.49 L4.14,4.49 L12,4.49 L12,6.49 L9.23,6.49 L9.23,17.43 L6.91,17.43 L6.91,6.49 Z M43,18.33 L46.38,18.33 C49.71,18.33 51.01,20.47 51.01,24.55 C51.01,28.93 49.77,31.3 46.2,31.3 L43,31.3 L43,18.33 Z M45.3,29.4 L46.13,29.4 C47.95,29.4 48.57,28.04 48.57,24.56 C48.57,21.56 48.02,20.26 46.15,20.26 L45.3,20.26 L45.3,29.4 Z" id="Combined-Shape" fill="#000000" fill-rule="nonzero"></path>
    </g>
</svg>